<?xml version="1.0" standalone="no"?>
<!DOCTYPE svg PUBLIC "-//W3C//DTD SVG 20010904//EN"
 "http://www.w3.org/TR/2001/REC-SVG-20010904/DTD/svg10.dtd">
<svg version="1.0" xmlns="http://www.w3.org/2000/svg"
 width="789.000000pt" height="422.000000pt" viewBox="0 0 789.000000 422.000000"
 preserveAspectRatio="xMidYMid meet">

<g transform="translate(0.000000,422.000000) scale(0.100000,-0.100000)"
fill="#000000" stroke="none">
<path d="M0 2110 l0 -2110 3945 0 3945 0 0 2110 0 2110 -3945 0 -3945 0 0
-2110z m2350 1120 l0 -70 70 0 70 0 0 -70 0 -70 70 0 70 0 0 -70 0 -70 70 0
70 0 0 -70 0 -70 70 0 70 0 0 -75 0 -75 85 0 85 0 0 -870 0 -870 -870 0 -870
0 0 75 0 75 -85 0 -85 0 0 70 0 70 -70 0 -70 0 0 70 0 70 -70 0 -70 0 0 70 0
70 -70 0 -70 0 0 70 0 70 -70 0 -70 0 0 870 0 870 870 0 870 0 0 -70z m4272
-1000 c22 0 20 3 49 -122 18 -81 25 -98 40 -98 11 0 19 -4 19 -10 0 -5 -5 -10
-12 -10 -20 0 5 -18 32 -23 l25 -4 -30 -12 -30 -11 1 -154 c2 -153 2 -154 -22
-164 -26 -13 -29 -10 -39 35 -3 18 -12 36 -19 40 -16 10 -29 73 -16 73 6 0 10
8 9 18 0 10 -3 12 -6 5 -8 -20 -23 -15 -23 7 0 11 5 20 10 20 6 0 10 5 10 11
0 5 -4 8 -9 5 -13 -9 -22 22 -15 51 6 24 5 25 -27 18 -50 -11 -58 -19 -24 -25
28 -6 27 -7 -26 -23 -62 -19 -73 -28 -83 -72 -4 -16 -14 -40 -22 -52 -18 -28
-64 -32 -65 -5 0 15 -1 15 -8 -2 -5 -14 -10 -16 -15 -8 -4 7 -4 17 -1 22 4 6
2 17 -5 25 -8 10 1 41 41 137 61 147 59 144 71 127 5 -9 6 -4 2 14 -7 29 12
87 28 87 5 0 6 4 3 10 -3 5 -1 27 6 48 10 36 14 39 63 48 28 5 55 6 61 2 5 -5
17 -8 27 -8z m779 0 c25 0 29 -10 53 -119 19 -84 24 -96 44 -99 25 -4 30 -22
6 -22 -8 0 -12 -4 -9 -10 3 -5 17 -10 31 -10 33 0 31 -17 -3 -24 l-28 -6 2
-123 c1 -67 5 -137 8 -154 6 -31 0 -38 -27 -34 -5 0 -8 -3 -8 -9 0 -5 -4 -10
-9 -10 -5 0 -15 23 -22 50 -7 28 -16 45 -20 39 -10 -17 -20 38 -14 79 4 29 3
33 -5 17 -9 -18 -10 -17 -7 8 3 15 0 27 -6 27 -6 0 -7 16 -3 41 6 39 5 41 -16
36 -13 -3 -41 -9 -63 -14 l-40 -8 50 -5 c47 -6 48 -6 20 -14 -68 -17 -103 -38
-110 -65 -4 -14 -13 -41 -22 -58 -13 -29 -20 -33 -53 -31 -36 1 -38 3 -44 40
-5 31 3 60 45 163 28 68 55 122 60 119 5 -3 6 1 3 9 -7 20 22 87 38 87 10 0
10 2 0 8 -10 7 -10 16 1 47 13 36 18 40 63 50 27 6 53 8 59 3 5 -4 17 -8 26
-8z m-3086 -5 c17 -8 68 -17 115 -20 64 -6 90 -12 107 -27 24 -22 54 -20 88 7
14 12 16 18 8 21 -7 3 -13 12 -13 20 0 18 39 18 76 0 16 -8 65 -18 109 -22
107 -9 125 -21 125 -84 0 -28 -5 -52 -13 -57 -7 -4 -24 -27 -39 -50 -40 -61
-76 -92 -145 -123 l-61 -28 -7 -55 c-4 -31 -5 -60 -1 -65 5 -8 -31 -92 -40
-92 -1 0 -14 5 -27 11 -32 14 -41 84 -26 200 6 46 11 92 12 102 1 9 6 17 12
17 5 0 11 11 11 25 1 14 -2 25 -7 25 -5 0 -9 6 -9 14 0 8 -7 21 -15 30 -14 14
-17 14 -33 -2 -10 -10 -30 -39 -45 -64 -32 -56 -72 -88 -150 -123 l-57 -25 0
-65 c0 -46 -6 -78 -20 -105 -23 -45 -20 -44 -55 -28 -22 10 -26 17 -23 40 3
16 1 31 -4 34 -15 10 14 233 32 244 5 3 12 19 16 35 4 17 3 27 -1 23 -11 -11
-55 59 -55 87 0 19 10 30 40 45 37 19 53 40 30 40 -5 0 -10 6 -10 14 0 18 34
18 75 1z m2870 -5 c4 -6 0 -21 -9 -34 -12 -19 -28 -25 -75 -31 l-59 -7 -10
-41 c-15 -59 -61 -326 -63 -362 -1 -16 2 -48 6 -70 7 -36 7 -39 -8 -27 -9 8
-18 21 -20 30 -2 9 -3 5 -2 -10 2 -31 -2 -32 -39 -18 -35 13 -55 100 -32 138
4 7 5 19 2 27 -2 7 0 16 7 19 8 4 9 8 1 11 -7 4 -8 18 -3 43 4 20 13 69 20
107 6 39 13 80 16 93 5 19 2 22 -23 20 -60 -4 -110 2 -95 11 11 7 7 10 -15 13
-24 2 -29 8 -32 34 -2 23 2 34 15 39 15 7 99 12 370 23 23 1 45 -3 48 -8z
m-3630 -28 c97 -48 155 -131 155 -225 0 -34 -7 -74 -16 -93 -38 -81 -185 -169
-281 -169 -29 0 -53 -3 -53 -7 0 -5 -7 -8 -15 -8 -8 0 -15 7 -15 16 0 8 -4 12
-10 9 -5 -3 -10 -2 -10 4 0 5 5 11 12 13 9 3 6 12 -8 30 -18 24 -19 34 -12
124 12 143 44 307 64 321 21 15 148 6 189 -15z m552 -1 c21 -11 34 -20 29 -21
-4 0 -1 -11 8 -25 9 -14 12 -25 6 -25 -11 0 -13 -33 -4 -79 4 -17 10 -28 15
-25 19 11 7 -51 -22 -119 -66 -153 -175 -218 -287 -172 -68 29 -112 90 -127
179 -7 45 24 119 76 176 17 19 26 27 19 18 -25 -36 -2 -16 41 34 24 29 38 49
31 44 -6 -4 -12 -3 -12 2 0 9 35 26 75 36 37 9 113 -3 152 -23z m933 8 c0 -16
4 -19 20 -14 24 8 24 15 5 -184 -8 -85 -14 -156 -12 -157 1 -1 47 7 101 17 55
11 104 18 110 16 6 -2 -16 -10 -49 -16 -33 -7 -73 -17 -90 -22 l-30 -9 30 5
c17 3 71 8 122 12 l91 6 7 36 c4 20 9 54 11 76 2 22 11 85 20 141 l17 101 140
6 c169 6 200 -4 160 -52 -15 -16 -36 -22 -108 -29 l-90 -9 70 -2 c49 -2 64 -5
50 -11 -11 -5 -36 -9 -55 -9 -67 -2 -80 -10 -80 -49 l0 -35 85 5 c62 4 87 2
93 -7 4 -6 14 -14 22 -17 25 -8 -32 -38 -101 -52 -52 -11 -58 -14 -34 -18 21
-2 10 -6 -37 -11 -62 -8 -67 -11 -77 -38 -5 -16 -15 -29 -20 -29 -6 0 -11 -7
-11 -16 0 -13 8 -15 43 -10 90 12 196 18 221 12 49 -12 27 -65 -28 -67 l-31
-1 30 -8 c42 -10 23 -15 -139 -39 -152 -22 -182 -18 -173 22 3 12 9 34 12 50
6 21 4 27 -9 27 -19 0 -21 -16 -3 -23 16 -6 5 -10 -113 -38 -52 -12 -122 -33
-154 -46 -33 -13 -69 -23 -80 -23 -23 0 -53 39 -39 49 4 3 8 49 8 101 1 52 5
127 10 165 8 62 9 66 15 35 5 -27 8 -15 14 55 4 50 12 98 17 108 13 24 39 22
39 -4z m1150 -14 c49 -25 87 -61 119 -115 25 -42 29 -142 8 -193 -33 -77 -188
-171 -282 -172 -27 0 -53 -4 -56 -8 -4 -5 -15 -3 -27 4 -16 10 -18 16 -8 31 9
16 8 21 -6 29 -23 13 -23 82 -3 229 20 143 34 203 52 217 23 18 149 5 203 -22z
m-2020 -110 c0 -8 -4 -15 -10 -15 -5 0 -10 7 -10 15 0 8 5 15 10 15 6 0 10 -7
10 -15z"/>
<path d="M670 3198 c0 -44 0 -1368 0 -1535 l0 -53 40 0 40 0 0 775 0 775 775
0 775 0 0 45 0 45 -815 0 -815 0 0 -52z"/>
<path d="M805 3098 c-3 -7 -4 -344 -3 -748 l3 -735 43 -3 42 -3 0 705 0 706
705 0 705 0 0 45 0 45 -745 0 c-587 0 -747 -3 -750 -12z"/>
<path d="M2350 3065 l0 -45 45 0 45 0 0 45 0 45 -45 0 -45 0 0 -45z"/>
<path d="M942 2293 l3 -678 43 -3 42 -3 0 635 0 636 635 0 635 0 0 45 0 45
-680 0 -680 0 2 -677z"/>
<path d="M2350 2925 l0 -45 45 0 45 0 0 45 0 45 -45 0 -45 0 0 -45z"/>
<path d="M2490 2925 l0 -45 45 0 45 0 0 45 0 45 -45 0 -45 0 0 -45z"/>
<path d="M1080 2220 l0 -610 45 0 45 0 0 566 0 565 83 -1 c45 -1 299 -1 565
-1 l482 1 0 45 0 45 -610 0 -610 0 0 -610z"/>
<path d="M2350 2785 l0 -45 45 0 45 0 0 45 0 45 -45 0 -45 0 0 -45z"/>
<path d="M2490 2785 l0 -45 45 0 45 0 0 45 0 45 -45 0 -45 0 0 -45z"/>
<path d="M2630 2785 l0 -45 45 0 45 0 0 45 0 45 -45 0 -45 0 0 -45z"/>
<path d="M1222 2148 l3 -533 58 -3 57 -3 0 491 0 490 480 0 480 0 0 45 0 45
-540 0 -540 0 2 -532z"/>
<path d="M2350 2635 l0 -45 45 0 45 0 0 45 0 45 -45 0 -45 0 0 -45z"/>
<path d="M2490 2635 l0 -45 45 0 45 0 0 45 0 45 -45 0 -45 0 0 -45z"/>
<path d="M2630 2635 l0 -45 45 0 45 0 0 45 0 45 -45 0 -45 0 0 -45z"/>
<path d="M2770 2635 l0 -45 45 0 45 0 0 45 0 45 -45 0 -45 0 0 -45z"/>
<path d="M1390 2075 l0 -465 455 0 455 0 0 465 0 465 -455 0 -455 0 0 -465z"/>
<path d="M2350 2050 l0 -490 -480 0 -480 0 0 -45 0 -45 525 0 525 0 0 535 0
535 -45 0 -45 0 0 -490z"/>
<path d="M2490 1980 l0 -560 -550 0 -550 0 0 -45 0 -45 595 0 595 0 0 605 0
605 -45 0 -45 0 0 -560z"/>
<path d="M2630 1910 l0 -630 -620 0 -620 0 0 -45 0 -45 665 0 665 0 0 675 0
675 -45 0 -45 0 0 -630z"/>
<path d="M2770 1840 l0 -700 -690 0 -690 0 0 -45 0 -45 735 0 735 0 0 745 0
745 -45 0 -45 0 0 -700z"/>
<path d="M2910 1770 l0 -770 -760 0 -760 0 0 -50 0 -50 818 2 817 3 3 818 2
817 -60 0 -60 0 0 -770z"/>
<path d="M802 1518 c3 -43 3 -43 46 -46 l42 -3 0 45 0 46 -46 0 -45 0 3 -42z"/>
<path d="M942 1518 c3 -43 3 -43 46 -46 l42 -3 0 45 0 46 -46 0 -45 0 3 -42z"/>
<path d="M1082 1518 c3 -43 3 -43 46 -46 l42 -3 0 45 0 46 -46 0 -45 0 3 -42z"/>
<path d="M1222 1518 l3 -43 58 -3 57 -3 0 46 0 45 -61 0 -60 0 3 -42z"/>
<path d="M942 1378 c3 -43 3 -43 46 -46 l42 -3 0 45 0 46 -46 0 -45 0 3 -42z"/>
<path d="M1082 1378 c3 -43 3 -43 46 -46 l42 -3 0 45 0 46 -46 0 -45 0 3 -42z"/>
<path d="M1222 1378 l3 -43 58 -3 57 -3 0 46 0 45 -61 0 -60 0 3 -42z"/>
<path d="M1082 1238 c3 -43 3 -43 46 -46 l42 -3 0 45 0 46 -46 0 -45 0 3 -42z"/>
<path d="M1222 1238 l3 -43 58 -3 57 -3 0 46 0 45 -61 0 -60 0 3 -42z"/>
<path d="M1220 1095 l0 -45 60 0 60 0 0 45 0 45 -60 0 -60 0 0 -45z"/>
<path d="M6532 2037 c-27 -71 -27 -67 2 -67 40 0 50 22 34 77 l-14 48 -22 -58z"/>
<path d="M6538 1953 c7 -3 16 -2 19 1 4 3 -2 6 -13 5 -11 0 -14 -3 -6 -6z"/>
<path d="M7330 2075 c0 -2 -9 -27 -20 -55 l-20 -50 23 0 c41 0 50 14 43 64 -4
25 -11 46 -17 46 -5 0 -9 -2 -9 -5z"/>
<path d="M7328 1953 c7 -3 16 -2 19 1 4 3 -2 6 -13 5 -11 0 -14 -3 -6 -6z"/>
<path d="M4394 2100 c-68 -10 -71 -13 -76 -60 -4 -48 5 -50 58 -11 44 32 92
82 78 80 -5 -1 -32 -5 -60 -9z"/>
<path d="M4771 2099 c-62 -8 -67 -12 -76 -61 -6 -30 -4 -38 7 -38 26 0 141 93
127 103 -2 2 -28 0 -58 -4z"/>
<path d="M4410 2030 c-14 -10 -42 -27 -62 -36 -21 -9 -38 -21 -38 -26 0 -12
92 36 114 61 24 26 19 27 -14 1z"/>
<path d="M4752 2010 c-78 -47 -89 -57 -38 -36 38 16 106 62 106 72 0 5 4 7
-68 -36z"/>
<path d="M6883 2133 c9 -2 23 -2 30 0 6 3 -1 5 -18 5 -16 0 -22 -2 -12 -5z"/>
<path d="M6930 1746 c0 -8 5 -18 10 -21 6 -3 10 3 10 14 0 12 -4 21 -10 21 -5
0 -10 -6 -10 -14z"/>
<path d="M3451 2091 c-13 -13 -22 -45 -30 -107 -7 -49 -14 -103 -17 -121 l-5
-32 44 13 c86 26 135 48 141 65 4 9 13 27 21 41 22 38 19 105 -6 128 -37 35
-119 42 -148 13z"/>
<path d="M3458 1773 c7 -3 16 -2 19 1 4 3 -2 6 -13 5 -11 0 -14 -3 -6 -6z"/>
<path d="M3957 2092 c-12 -13 -32 -28 -45 -33 -28 -11 -73 -103 -79 -164 -4
-33 -1 -47 19 -69 32 -38 65 -28 124 37 59 66 84 117 91 182 5 46 3 54 -15 64
-31 16 -70 9 -95 -17z"/>
<path d="M4063 1950 c-6 -17 -8 -30 -3 -30 8 0 24 50 18 56 -2 2 -9 -10 -15
-26z"/>
<path d="M6077 2098 c-19 -15 -33 -74 -43 -182 l-7 -79 29 6 c16 3 54 15 84
26 44 17 60 29 78 60 23 42 29 109 12 141 -18 34 -120 52 -153 28z"/>
</g>
</svg>
