<?xml version="1.0" standalone="no"?>
<!DOCTYPE svg PUBLIC "-//W3C//DTD SVG 20010904//EN"
 "http://www.w3.org/TR/2001/REC-SVG-20010904/DTD/svg10.dtd">
<svg version="1.0" xmlns="http://www.w3.org/2000/svg"
 width="774.000000pt" height="436.000000pt" viewBox="0 0 774.000000 436.000000"
 preserveAspectRatio="xMidYMid meet">

<g transform="translate(0.000000,436.000000) scale(0.100000,-0.100000)"
fill="#000000" stroke="none">
<path d="M447 3558 c-4 -66 -7 -403 -7 -748 0 -345 3 -682 7 -748 l6 -122 63
0 63 0 3 -67 3 -68 67 -3 67 -3 3 -67 3 -67 68 -3 67 -3 0 -69 0 -70 70 0 70
0 0 -70 0 -70 85 0 85 0 0 -75 0 -75 868 2 867 3 3 868 2 867 -85 0 -85 0 0
70 0 70 -70 0 -70 0 0 75 0 75 -70 0 -70 0 0 70 0 70 -70 0 -70 0 0 70 0 70
-70 0 -70 0 0 70 0 70 -863 0 -864 0 -6 -122z m1683 27 l0 -45 -775 0 -775 0
0 -776 0 -775 -41 3 -40 3 0 813 c0 446 1 814 1 817 0 3 367 5 815 5 l815 0 0
-45z m0 -140 l0 -45 -705 0 -705 0 0 -706 0 -705 -42 3 -43 3 -2 735 c-2 404
-1 741 2 748 3 9 163 12 750 12 l745 0 0 -45z m140 0 l0 -45 -45 0 -45 0 0 45
0 45 45 0 45 0 0 -45z m-140 -140 l0 -45 -635 0 -635 0 0 -636 0 -635 -42 3
-43 3 -3 678 -2 677 680 0 680 0 0 -45z m140 0 l0 -45 -45 0 -45 0 0 45 0 45
45 0 45 0 0 -45z m140 0 l0 -45 -45 0 -45 0 0 45 0 45 45 0 45 0 0 -45z m-280
-140 l0 -45 -443 0 c-244 0 -499 -3 -565 -7 l-122 -6 0 -559 0 -559 -42 3 -43
3 -3 608 -2 607 610 0 610 0 0 -45z m140 0 l0 -45 -45 0 -45 0 0 45 0 45 45 0
45 0 0 -45z m140 0 l0 -45 -45 0 -45 0 0 45 0 45 45 0 45 0 0 -45z m140 0 l0
-45 -45 0 -45 0 0 45 0 45 45 0 45 0 0 -45z m-420 -150 l0 -45 -480 0 -480 0
0 -490 0 -491 -57 3 -58 3 -2 533 -3 532 540 0 540 0 0 -45z m140 0 l0 -45
-45 0 -45 0 0 45 0 45 45 0 45 0 0 -45z m140 0 l0 -45 -45 0 -45 0 0 45 0 45
45 0 45 0 0 -45z m140 0 l0 -45 -45 0 -45 0 0 45 0 45 45 0 45 0 0 -45z m140
0 l0 -45 -45 0 -45 0 0 45 0 45 45 0 45 0 0 -45z m-560 -560 l0 -465 -455 0
-455 0 0 465 0 465 455 0 455 0 0 -465z m140 -70 l0 -535 -525 0 -525 0 0 45
0 45 480 0 480 0 0 490 0 490 45 0 45 0 0 -535z m140 -70 l0 -605 -595 0 -595
0 0 45 0 45 550 0 550 0 0 560 0 560 45 0 45 0 0 -605z m140 -70 l0 -675 -665
0 -665 0 0 45 0 45 620 0 620 0 0 630 0 630 45 0 45 0 0 -675z m140 -70 l0
-745 -735 0 -735 0 0 45 0 45 690 0 690 0 0 700 0 700 45 0 45 0 0 -745z m168
-72 l-3 -818 -817 -2 -818 -3 0 50 0 50 760 0 760 0 0 770 0 770 60 0 60 0 -2
-817z m-2138 -209 l0 -45 -42 3 c-43 3 -43 3 -46 46 l-3 42 45 0 46 0 0 -46z
m140 0 l0 -45 -42 3 c-43 3 -43 3 -46 46 l-3 42 45 0 46 0 0 -46z m140 0 l0
-45 -42 3 c-43 3 -43 3 -46 46 l-3 42 45 0 46 0 0 -46z m170 1 l0 -46 -57 3
-58 3 -3 43 -3 42 60 0 61 0 0 -45z m-310 -141 l0 -45 -42 3 c-43 3 -43 3 -46
46 l-3 42 45 0 46 0 0 -46z m140 0 l0 -45 -42 3 c-43 3 -43 3 -46 46 l-3 42
45 0 46 0 0 -46z m170 1 l0 -46 -57 3 -58 3 -3 43 -3 42 60 0 61 0 0 -45z
m-170 -141 l0 -45 -42 3 c-43 3 -43 3 -46 46 l-3 42 45 0 46 0 0 -46z m170 1
l0 -46 -57 3 -58 3 -3 43 -3 42 60 0 61 0 0 -45z m0 -140 l0 -45 -60 0 -60 0
0 45 0 45 60 0 60 0 0 -45z"/>
<path d="M4080 2603 c0 -7 5 -13 10 -13 26 0 5 -23 -36 -42 -43 -19 -46 -22
-40 -50 3 -17 17 -41 30 -53 30 -28 35 -104 7 -106 -10 0 -11 -2 -3 -6 16 -6
15 -23 -3 -37 -8 -7 -16 -37 -20 -80 -3 -38 -6 -72 -7 -75 -1 -3 2 -14 7 -24
4 -9 5 -26 2 -37 -5 -20 17 -40 42 -40 22 0 41 60 41 129 l0 71 67 30 c78 36
114 67 151 130 14 25 32 49 39 53 21 13 16 84 -7 107 -19 19 -77 27 -160 22
-13 -1 -28 4 -32 11 -6 9 -10 8 -18 -3 -8 -13 -10 -13 -10 1 0 11 -11 18 -30
21 -20 3 -30 0 -30 -9z m210 -122 c0 -5 -21 -29 -47 -52 -32 -28 -38 -37 -18
-25 17 10 40 28 53 39 12 11 22 16 22 10 0 -25 -127 -113 -162 -113 -7 0 -2 9
12 20 15 12 18 18 8 14 -15 -5 -18 0 -18 28 0 45 18 68 60 78 49 11 90 12 90
1z"/>
<path d="M4450 2610 c0 -3 5 -11 11 -17 16 -16 4 -31 -37 -48 -45 -18 -46 -56
-4 -100 26 -26 29 -35 23 -68 -4 -28 -8 -35 -15 -25 -6 9 -7 3 -3 -16 4 -17 2
-32 -5 -36 -15 -9 -31 -160 -19 -182 5 -9 6 -24 2 -34 -6 -17 19 -44 42 -44
22 0 45 69 45 136 l0 65 58 25 c78 35 113 64 153 126 18 29 38 58 44 64 5 6
10 28 10 49 0 56 -30 74 -128 77 -43 1 -80 5 -83 9 -2 5 -11 6 -19 2 -8 -3
-15 -1 -15 5 0 5 -13 12 -30 14 -16 3 -30 2 -30 -2z m210 -139 c-5 -11 -30
-34 -55 -52 -25 -18 -45 -34 -45 -37 0 -5 40 20 90 56 l35 25 -35 -37 c-50
-53 -140 -104 -140 -78 0 5 10 14 23 21 12 6 14 9 4 6 -16 -4 -18 1 -15 43 3
47 3 47 48 59 25 6 58 12 73 12 24 1 26 -1 17 -18z"/>
<path d="M6378 2614 c-3 -3 -18 -6 -33 -7 -23 -2 -31 -10 -42 -42 -9 -26 -10
-41 -3 -43 5 -2 10 -8 10 -13 0 -6 -4 -7 -10 -4 -13 8 -40 -59 -33 -85 4 -14
1 -20 -7 -18 -8 2 -32 -43 -61 -114 -43 -104 -48 -121 -40 -155 5 -21 9 -30
10 -21 1 9 6 20 12 24 7 4 9 -2 7 -17 -2 -18 2 -25 18 -27 22 -3 35 16 57 83
12 37 19 42 78 63 l64 23 -52 -4 c-70 -5 -68 7 4 22 81 16 86 15 81 -14 -3
-14 -2 -28 2 -30 5 -3 11 -23 15 -45 4 -22 11 -42 16 -46 14 -8 11 -24 -6 -24
-19 0 -20 -16 -1 -23 7 -3 18 -26 25 -51 8 -34 15 -44 26 -40 8 4 15 11 15 18
0 6 5 4 11 -4 12 -18 1 55 -12 82 -5 9 -9 25 -8 35 1 13 3 11 9 -7 6 -16 8 14
7 82 l-2 108 30 11 30 12 -30 6 c-16 3 -28 10 -27 15 2 5 -2 12 -8 16 -7 4
-21 45 -31 91 -10 46 -21 94 -24 106 -6 27 -79 55 -97 37z m26 -224 c1 -52 0
-55 -25 -58 -45 -5 -50 16 -22 87 22 54 28 60 36 45 6 -10 11 -43 11 -74z
m-80 16 c-3 -14 -11 -26 -16 -26 -5 0 -7 6 -4 13 3 6 9 20 12 30 10 27 16 13
8 -17z m-27 -68 c-3 -8 -6 -5 -6 6 -1 11 2 17 5 13 3 -3 4 -12 1 -19z m-47 8
c0 -3 -4 -8 -10 -11 -5 -3 -10 -1 -10 4 0 6 5 11 10 11 6 0 10 -2 10 -4z"/>
<path d="M6368 2343 c6 -2 18 -2 25 0 6 3 1 5 -13 5 -14 0 -19 -2 -12 -5z"/>
<path d="M7150 2610 c-8 -5 -22 -7 -31 -5 -19 6 -43 -62 -32 -91 4 -11 3 -15
-4 -11 -16 10 -36 -48 -29 -79 5 -20 4 -25 -7 -21 -20 7 -122 -239 -107 -258
6 -7 8 -21 5 -31 -4 -12 -2 -11 6 4 16 30 31 28 23 -3 -5 -21 -3 -25 15 -25
24 0 48 33 57 78 8 39 21 50 87 74 l52 18 -53 -4 c-62 -4 -57 6 10 23 69 16
88 15 88 -10 0 -11 -4 -17 -10 -14 -5 3 -10 2 -10 -4 0 -5 6 -14 13 -18 16
-10 39 -107 26 -111 -5 -2 -9 -10 -9 -18 0 -9 4 -13 9 -10 5 4 15 -16 22 -44
13 -51 25 -62 35 -35 4 8 9 13 14 10 4 -2 6 63 5 146 -1 101 2 152 9 154 48
14 51 18 18 25 -35 8 -54 20 -32 20 10 0 9 3 -3 13 -10 7 -25 52 -39 113 -21
97 -24 102 -53 113 -38 13 -55 14 -75 1z m38 -181 c13 -56 10 -66 -22 -80 -18
-8 -17 -9 7 -4 17 3 26 2 23 -3 -11 -17 -65 -20 -71 -3 -6 16 34 141 45 141 4
0 12 -23 18 -51z m-81 -25 c-9 -17 -17 -23 -21 -15 -4 6 -3 11 2 11 5 0 12 10
15 22 4 12 9 19 12 16 4 -3 0 -19 -8 -34z m-25 -66 c-7 -7 -12 -8 -12 -2 0 14
12 26 19 19 2 -3 -1 -11 -7 -17z m238 -216 c0 -15 -2 -15 -10 -2 -13 20 -13
33 0 25 6 -3 10 -14 10 -23z"/>
<path d="M4831 2563 c-5 -21 -12 -91 -16 -155 -4 -65 -11 -116 -15 -113 -4 3
-6 24 -3 48 3 23 3 39 -1 36 -3 -3 -11 -52 -16 -108 -7 -77 -7 -107 3 -122 10
-16 9 -21 -2 -28 -10 -7 -11 -13 -2 -30 15 -27 21 -26 101 3 36 14 94 32 130
41 143 36 148 37 120 45 -23 6 -22 8 18 19 62 17 56 39 -10 34 -48 -3 -141
-15 -223 -29 -23 -4 -26 -3 -15 5 13 9 13 11 -2 11 -22 0 -22 35 -4 222 11
118 10 128 -5 123 -11 -4 -18 1 -22 15 -8 32 -25 23 -36 -17z m-28 -303 c-3
-11 -7 -20 -9 -20 -2 0 -4 9 -4 20 0 11 4 20 9 20 5 0 7 -9 4 -20z"/>
<path d="M6685 2593 c-91 -4 -106 -12 -96 -51 7 -27 8 -27 92 -24 101 4 100
-15 -1 -21 l-65 -3 69 -2 69 -2 -7 -47 c-3 -27 -9 -74 -13 -106 -3 -32 -10
-60 -14 -63 -15 -9 -10 -44 6 -44 16 0 17 -17 5 -65 -4 -16 -8 -22 -9 -12 -2
34 -19 16 -19 -20 0 -47 17 -105 28 -98 5 3 11 1 15 -5 16 -26 24 -5 19 49 -4
39 -3 61 5 65 7 5 11 -5 11 -31 0 -46 9 -83 20 -83 5 0 4 17 -2 37 -11 41 -7
75 39 320 29 155 27 152 103 153 43 0 63 12 65 39 2 20 -2 21 -119 19 -67 -1
-157 -4 -201 -5z m302 -9 c-3 -3 -12 -4 -19 -1 -8 3 -5 6 6 6 11 1 17 -2 13
-5z m-257 -485 c0 -6 -4 -7 -10 -4 -5 3 -10 11 -10 16 0 6 5 7 10 4 6 -3 10
-11 10 -16z"/>
<path d="M3181 2551 c-13 -46 -37 -203 -46 -311 -6 -68 -5 -77 14 -94 20 -18
20 -20 4 -40 -17 -20 -17 -20 0 -7 15 12 17 11 18 -10 1 -17 3 -19 6 -6 5 19
19 22 29 6 9 -16 78 -3 144 27 133 60 186 126 184 229 -1 75 -27 128 -88 182
-53 46 -97 61 -187 62 l-66 0 -12 -38z m3 -117 c-15 -84 -24 -116 -24 -83 0
16 16 114 26 158 3 13 7 21 9 19 3 -2 -2 -44 -11 -94z m251 40 c1 -5 7 -20 14
-33 17 -30 9 -92 -15 -129 -10 -15 -18 -30 -17 -34 2 -6 -159 -68 -178 -68
-13 0 -11 39 6 155 11 71 20 104 33 113 19 15 157 12 157 -4z m48 -126 l-11
-33 -1 45 c-1 33 2 41 11 32 8 -8 8 -20 1 -44z m27 -59 c-12 -32 -19 -42 -16
-24 6 38 25 89 31 83 3 -2 -4 -29 -15 -59z m-50 -63 c0 -2 -8 -10 -17 -17 -16
-13 -17 -12 -4 4 13 16 21 21 21 13z m-135 -66 c-3 -5 -18 -10 -33 -9 l-27 1
25 8 c35 11 42 11 35 0z m-70 -20 c-3 -5 -10 -10 -16 -10 -5 0 -9 5 -9 10 0 6
7 10 16 10 8 0 12 -4 9 -10z"/>
<path d="M3755 2580 c-11 -5 -16 -9 -12 -9 5 -1 -17 -29 -48 -63 -31 -35 -70
-88 -85 -118 -29 -56 -38 -63 -20 -16 14 39 1 31 -16 -9 -22 -53 -18 -109 14
-166 31 -59 60 -82 121 -99 62 -16 97 -7 161 43 46 36 60 56 87 118 33 78 53
145 35 120 -12 -17 -17 -2 -27 78 -5 36 -4 51 3 47 7 -4 6 4 -1 23 -6 17 -25
36 -44 45 -36 17 -134 21 -168 6z m140 -93 c56 -42 -69 -280 -159 -303 -25 -6
-34 -2 -59 26 -23 26 -28 39 -24 65 23 140 167 266 242 212z m-244 -114 c-12
-20 -14 -14 -5 12 4 9 9 14 11 11 3 -2 0 -13 -6 -23z m262 -43 c-6 -21 -21
-35 -29 -27 -2 2 0 16 6 31 11 31 31 27 23 -4z m-336 -57 c-3 -10 -5 -4 -5 12
0 17 2 24 5 18 2 -7 2 -21 0 -30z m285 -5 c-7 -7 -12 -8 -12 -2 0 14 12 26 19
19 2 -3 -1 -11 -7 -17z m-167 -128 c3 -6 -1 -7 -9 -4 -18 7 -21 14 -7 14 6 0
13 -4 16 -10z"/>
<path d="M5226 2574 c-3 -9 -6 -35 -6 -58 0 -23 -5 -47 -11 -53 -8 -8 -13 -61
-14 -145 -2 -153 -2 -151 -14 -144 -10 6 -21 -26 -21 -61 0 -19 6 -23 30 -23
32 0 230 27 270 37 l25 6 -25 7 -25 8 25 1 c33 2 45 11 53 40 l6 24 -147 -6
-147 -6 4 42 c5 37 6 39 9 12 4 -30 4 -29 22 15 l18 45 73 7 c41 4 92 13 113
21 41 14 60 37 32 37 -9 0 -16 5 -16 11 0 9 -25 10 -91 6 l-91 -7 6 31 c3 17
6 38 6 45 0 10 14 14 46 14 54 0 51 20 -4 21 -72 1 -1 18 80 18 68 1 79 4 88
22 24 44 11 49 -144 49 -122 0 -145 -2 -150 -16z"/>
<path d="M5796 2521 c-15 -66 -29 -170 -41 -291 -5 -58 -4 -68 14 -84 13 -11
21 -32 21 -50 1 -27 2 -28 11 -13 8 14 14 16 24 7 22 -18 88 -3 176 41 120 61
166 131 156 238 -6 63 -27 100 -88 155 -58 52 -97 65 -191 64 l-67 -2 -15 -65z
m10 -86 c-9 -48 -18 -90 -21 -93 -8 -8 -6 5 10 98 8 47 15 87 15 89 0 2 2 2 6
-1 3 -3 -2 -45 -10 -93z m262 40 c4 -5 -1 -5 -11 -2 -17 6 -16 4 2 -19 29 -37
27 -92 -4 -138 -13 -20 -21 -36 -17 -36 18 -1 -30 -22 -101 -46 -43 -14 -81
-23 -84 -20 -4 3 1 61 11 129 12 89 21 126 34 135 18 14 156 12 170 -3z m42
-109 c0 -19 -4 -38 -10 -41 -6 -4 -10 10 -10 34 0 23 5 41 10 41 6 0 10 -15
10 -34z m25 -75 c-19 -57 -30 -68 -20 -18 11 47 25 81 31 74 3 -3 -2 -28 -11
-56z m-55 -65 c0 -2 -8 -10 -17 -17 -16 -13 -17 -12 -4 4 13 16 21 21 21 13z
m-135 -66 c-3 -5 -16 -10 -28 -9 -21 0 -21 1 -2 9 28 12 37 12 30 0z m-70 -20
c-3 -5 -10 -10 -16 -10 -5 0 -9 5 -9 10 0 6 7 10 16 10 8 0 12 -4 9 -10z"/>
<path d="M3981 2454 c0 -11 3 -14 6 -6 3 7 2 16 -1 19 -3 4 -6 -2 -5 -13z"/>
<path d="M5318 2303 c7 -3 16 -2 19 1 4 3 -2 6 -13 5 -11 0 -14 -3 -6 -6z"/>
<path d="M5378 2303 c7 -3 16 -2 19 1 4 3 -2 6 -13 5 -11 0 -14 -3 -6 -6z"/>
<path d="M5028 2243 c7 -3 16 -2 19 1 4 3 -2 6 -13 5 -11 0 -14 -3 -6 -6z"/>
<path d="M4968 2233 c6 -2 18 -2 25 0 6 3 1 5 -13 5 -14 0 -19 -2 -12 -5z"/>
<path d="M4928 2223 c7 -3 16 -2 19 1 4 3 -2 6 -13 5 -11 0 -14 -3 -6 -6z"/>
</g>
</svg>
