<?xml version="1.0" standalone="no"?>
<!DOCTYPE svg PUBLIC "-//W3C//DTD SVG 20010904//EN"
 "http://www.w3.org/TR/2001/REC-SVG-20010904/DTD/svg10.dtd">
<svg version="1.0" xmlns="http://www.w3.org/2000/svg"
 width="500.000000pt" height="500.000000pt" viewBox="0 0 500.000000 500.000000"
 preserveAspectRatio="xMidYMid meet">

<g transform="translate(0.000000,500.000000) scale(0.100000,-0.100000)"
fill="#000000" stroke="none">
<path d="M0 2500 l0 -2500 2500 0 2500 0 0 2500 0 2500 -2500 0 -2500 0 0
-2500z m3740 1875 l0 -125 125 0 124 0 3 -127 3 -128 128 -3 127 -3 0 -124 0
-125 125 0 125 0 0 -1570 0 -1570 -1575 0 -1575 0 0 125 0 125 -125 0 -125 0
0 125 0 125 -125 0 -125 0 0 125 0 125 -125 0 -125 0 0 1575 0 1575 1570 0
1570 0 0 -125z"/>
<path d="M788 4402 l-98 -3 0 -1474 0 -1475 80 0 80 0 0 1400 0 1401 143 -1
c78 -1 708 -1 1400 0 l1257 0 0 75 0 75 -92 0 c-51 0 -673 1 -1383 3 -710 1
-1334 1 -1387 -1z"/>
<path d="M1038 4152 l-98 -3 0 -1349 0 -1350 80 0 80 0 0 1270 0 1270 1275 0
1275 0 0 80 0 80 -1257 2 c-692 2 -1302 2 -1355 0z"/>
<path d="M3740 4070 l0 -80 80 0 80 0 0 80 0 80 -80 0 -80 0 0 -80z"/>
<path d="M1190 2675 l0 -1225 80 0 80 0 0 1145 0 1145 1150 0 1150 0 0 80 0
80 -1230 0 -1230 0 0 -1225z"/>
<path d="M3740 3820 l0 -80 80 0 80 0 0 80 0 80 -80 0 -80 0 0 -80z"/>
<path d="M3992 3823 l3 -78 78 -3 77 -3 0 81 0 80 -80 0 -81 0 3 -77z"/>
<path d="M1448 3553 c-2 -54 -2 -549 0 -1100 l2 -1003 1003 -2 c551 -2 1046
-2 1100 0 l97 3 0 1099 0 1100 -1100 0 -1099 0 -3 -97z"/>
<path d="M3740 2500 l0 -1150 -1145 0 -1145 0 0 -80 0 -80 1225 0 1225 0 0
1230 0 1230 -80 0 -80 0 0 -1150z"/>
<path d="M3990 2375 l0 -1275 -1270 0 -1270 0 0 -80 0 -80 1350 0 1349 0 3 98
c2 53 2 663 0 1355 l-2 1257 -80 0 -80 0 0 -1275z"/>
<path d="M4250 2250 l0 -1400 -1400 0 -1400 0 0 -80 0 -80 1480 0 1480 0 0
1480 0 1480 -80 0 -80 0 0 -1400z"/>
<path d="M940 1270 l0 -80 80 0 80 0 0 80 0 80 -80 0 -80 0 0 -80z"/>
<path d="M1190 1270 l0 -80 80 0 80 0 0 80 0 80 -80 0 -80 0 0 -80z"/>
<path d="M1190 1020 l0 -80 80 0 80 0 0 80 0 80 -80 0 -80 0 0 -80z"/>
</g>
</svg>
