<?xml version="1.0" standalone="no"?>
<!DOCTYPE svg PUBLIC "-//W3C//DTD SVG 20010904//EN"
 "http://www.w3.org/TR/2001/REC-SVG-20010904/DTD/svg10.dtd">
<svg version="1.0" xmlns="http://www.w3.org/2000/svg"
 width="500.000000pt" height="500.000000pt" viewBox="0 0 500.000000 500.000000"
 preserveAspectRatio="xMidYMid meet">

<g transform="translate(0.000000,500.000000) scale(0.100000,-0.100000)"
fill="#000000" stroke="none">
<path d="M600 2925 l0 -1575 125 0 125 0 0 -125 0 -125 125 0 125 0 0 -125 0
-125 125 0 125 0 0 -125 0 -125 1575 0 1575 0 0 1570 0 1570 -125 0 -125 0 0
125 0 124 -127 3 -128 3 -3 128 -3 127 -124 0 -125 0 0 125 0 125 -1570 0
-1570 0 0 -1575z m2958 1475 l92 0 0 -75 0 -75 -1257 0 c-692 -1 -1322 -1
-1400 0 l-143 1 0 -1401 0 -1400 -80 0 -80 0 0 1475 0 1474 98 3 c53 2 677 2
1387 1 710 -2 1332 -3 1383 -3z m92 -330 l0 -80 -1275 0 -1275 0 0 -1270 0
-1270 -80 0 -80 0 0 1350 0 1349 98 3 c53 2 663 2 1355 0 l1257 -2 0 -80z
m250 0 l0 -80 -80 0 -80 0 0 80 0 80 80 0 80 0 0 -80z m-250 -250 l0 -80
-1150 0 -1150 0 0 -1145 0 -1145 -80 0 -80 0 0 1225 0 1225 1230 0 1230 0 0
-80z m250 0 l0 -80 -80 0 -80 0 0 80 0 80 80 0 80 0 0 -80z m250 0 l0 -81 -77
3 -78 3 -3 78 -3 77 81 0 80 0 0 -80z m-500 -1270 l0 -1099 -97 -3 c-54 -2
-549 -2 -1100 0 l-1003 2 -2 1003 c-2 551 -2 1046 0 1100 l3 97 1099 0 1100 0
0 -1100z m250 -130 l0 -1230 -1225 0 -1225 0 0 80 0 80 1145 0 1145 0 0 1150
0 1150 80 0 80 0 0 -1230z m252 -27 c2 -692 2 -1302 0 -1355 l-3 -98 -1349 0
-1350 0 0 80 0 80 1270 0 1270 0 0 1275 0 1275 80 0 80 0 2 -1257z m258 -223
l0 -1480 -1480 0 -1480 0 0 80 0 80 1400 0 1400 0 0 1400 0 1400 80 0 80 0 0
-1480z m-3310 -900 l0 -80 -80 0 -80 0 0 80 0 80 80 0 80 0 0 -80z m250 0 l0
-80 -80 0 -80 0 0 80 0 80 80 0 80 0 0 -80z m0 -250 l0 -80 -80 0 -80 0 0 80
0 80 80 0 80 0 0 -80z"/>
</g>
</svg>
