<?xml version="1.0" standalone="no"?>
<!DOCTYPE svg PUBLIC "-//W3C//DTD SVG 20010904//EN"
 "http://www.w3.org/TR/2001/REC-SVG-20010904/DTD/svg10.dtd">
<svg version="1.0" xmlns="http://www.w3.org/2000/svg"
 width="1353.000000pt" height="306.000000pt" viewBox="0 0 1353.000000 306.000000"
 preserveAspectRatio="xMidYMid meet">

<g transform="translate(0.000000,306.000000) scale(0.100000,-0.100000)"
fill="#000000" stroke="none">
<path d="M0 1530 l0 -1530 6765 0 6765 0 0 1530 0 1530 -6765 0 -6765 0 0
-1530z m2138 1403 l142 -6 0 -73 0 -73 83 -3 82 -3 3 -72 3 -72 77 -3 77 -3 3
-82 3 -82 82 -3 82 -3 3 -82 3 -83 84 0 84 0 -2 -1002 -2 -1003 -917 -3 -918
-2 0 -45 0 -45 60 0 c41 0 60 -4 61 -12 0 -10 2 -10 6 0 4 9 197 12 918 12
502 0 915 -3 918 -7 2 -5 2 -2 0 5 -1 8 -3 434 -3 948 l0 934 -60 0 c-53 0
-60 2 -60 20 0 19 7 20 89 20 51 0 91 4 93 10 2 6 3 -444 3 -1000 l0 -1010
-1052 0 -1053 0 0 85 0 85 -92 0 -93 0 3 90 3 90 -80 0 -81 0 0 86 0 85 -87
-3 -88 -3 3 78 4 78 -89 -3 -88 -3 3 88 3 88 -88 -3 -88 -3 0 992 0 992 95 4
c190 6 1729 7 1868 0z m2923 -943 c131 -25 247 -108 299 -214 40 -81 50 -143
50 -301 0 -158 -10 -220 -50 -301 -85 -174 -319 -263 -549 -209 -129 31 -226
108 -283 223 l-33 67 0 220 0 220 33 67 c55 113 147 187 272 220 75 19 183 23
261 8z m-990 -27 c153 -57 253 -174 280 -328 18 -103 7 -325 -19 -399 -41
-114 -126 -197 -254 -249 -48 -19 -76 -22 -321 -25 -199 -3 -272 -1 -282 8
-13 11 -15 86 -15 504 0 380 3 495 13 505 9 10 72 12 277 9 238 -4 271 -7 321
-25z m2095 16 c119 -22 214 -89 256 -183 33 -74 33 -229 0 -301 -31 -67 -83
-118 -152 -149 -80 -36 -143 -46 -286 -46 l-124 0 0 -151 c0 -84 -5 -159 -10
-170 -10 -17 -22 -19 -128 -19 -79 0 -122 4 -130 12 -17 17 -17 989 0 1006 16
16 489 17 574 1z m1010 0 c119 -22 214 -89 256 -183 33 -74 33 -229 0 -301
-31 -67 -83 -118 -152 -149 -80 -36 -143 -46 -286 -46 l-124 0 0 -151 c0 -84
-5 -159 -10 -170 -10 -17 -22 -19 -128 -19 -79 0 -122 4 -130 12 -17 17 -17
989 0 1006 16 16 489 17 574 1z m694 -8 c6 -13 10 -157 10 -400 l0 -381 224 0
c123 0 231 -3 240 -6 24 -9 24 -209 0 -218 -9 -3 -174 -6 -368 -6 -260 0 -355
3 -364 12 -17 17 -17 989 0 1006 8 8 51 12 130 12 106 0 118 -2 128 -19z
m1378 7 c8 -8 12 -46 12 -103 0 -57 -4 -95 -12 -103 -9 -9 -77 -12 -245 -12
l-233 0 0 -85 0 -85 220 0 c256 0 240 7 240 -115 0 -122 16 -115 -240 -115
l-220 0 0 -85 0 -85 238 0 c172 0 241 -3 250 -12 8 -8 12 -46 12 -103 0 -57
-4 -95 -12 -103 -17 -17 -739 -17 -756 0 -17 17 -17 989 0 1006 17 17 729 17
746 0z m803 -15 c153 -57 253 -174 280 -328 18 -103 7 -325 -19 -399 -41 -114
-126 -197 -254 -249 -48 -19 -76 -22 -321 -25 -199 -3 -272 -1 -282 8 -13 11
-15 86 -15 504 0 380 3 495 13 505 9 10 72 12 277 9 238 -4 271 -7 321 -25z
m1042 9 c16 -17 347 -960 347 -987 0 -21 -25 -25 -140 -25 -124 0 -124 0 -156
94 l-21 61 -196 3 -196 2 -23 -71 c-12 -39 -30 -75 -40 -80 -10 -5 -69 -8
-130 -7 -107 3 -113 4 -116 24 -4 31 324 976 345 992 12 8 62 12 163 12 129 0
149 -2 163 -18z m1255 6 c8 -8 12 -46 12 -103 0 -57 -4 -95 -12 -103 -8 -8
-56 -12 -150 -12 l-138 0 0 -388 c0 -288 -3 -391 -12 -400 -17 -17 -229 -17
-246 0 -9 9 -12 112 -12 400 l0 388 -138 0 c-94 0 -142 4 -150 12 -16 16 -16
190 0 206 17 17 829 17 846 0z m735 -6 c16 -17 347 -960 347 -987 0 -21 -25
-25 -140 -25 -124 0 -124 0 -156 94 l-21 61 -196 3 -196 2 -23 -71 c-12 -39
-30 -75 -40 -80 -10 -5 -69 -8 -130 -7 -107 3 -113 4 -116 24 -4 31 324 976
345 992 12 8 62 12 163 12 129 0 149 -2 163 -18z"/>
<path d="M231 1935 l0 -940 60 0 59 0 -2 893 -3 892 933 0 932 0 0 45 0 45
-989 2 -990 3 0 -940z"/>
<path d="M405 1850 l0 -855 58 0 57 0 -2 818 -3 817 853 -2 852 -3 0 40 0 40
-907 0 -908 0 0 -855z"/>
<path d="M2280 2665 l0 -35 50 0 50 0 0 35 0 35 -50 0 -50 0 0 -35z"/>
<path d="M2210 2550 c0 -7 -278 -10 -815 -10 l-815 0 -2 -772 -3 -773 58 0 57
0 -2 733 -3 732 768 -2 767 -3 0 53 c0 28 -2 52 -5 52 -3 0 -5 -4 -5 -10z"/>
<path d="M2380 2550 c0 -5 -22 -10 -50 -10 l-50 0 0 -39 0 -39 55 -4 55 -3 0
53 c0 28 -2 52 -5 52 -3 0 -5 -4 -5 -10z"/>
<path d="M2450 2500 l0 -40 45 0 45 0 0 40 0 40 -45 0 -45 0 0 -40z"/>
<path d="M748 1690 l-3 -695 53 0 52 0 -2 648 -3 647 93 0 92 0 0 -30 0 -30
-62 0 -63 0 0 -617 0 -618 63 3 62 4 0 554 0 554 100 0 c60 0 100 4 100 10 0
16 977 14 983 -2 3 -7 6 15 6 50 l1 62 -590 0 -590 0 0 25 0 25 590 0 590 0 0
53 0 52 -735 0 -735 0 -2 -695z"/>
<path d="M2333 2383 l-51 -4 -4 -49 -3 -50 58 0 57 0 0 55 c0 30 -1 54 -2 53
-2 -1 -26 -3 -55 -5z"/>
<path d="M2498 2383 l-46 -4 -4 -50 -3 -49 53 0 52 0 0 55 c0 30 -1 54 -2 53
-2 -1 -24 -3 -50 -5z"/>
<path d="M2608 2335 l-3 -55 53 0 52 0 0 55 0 55 -49 0 -49 0 -4 -55z"/>
<path d="M2278 2180 l4 -50 48 0 c29 0 50 -5 53 -12 3 -7 6 15 6 50 l1 62 -57
0 -58 0 3 -50z"/>
<path d="M2448 2180 l4 -50 43 0 c25 0 45 -5 48 -12 3 -7 6 15 6 50 l1 62 -52
0 -53 0 3 -50z"/>
<path d="M2608 2180 l4 -50 43 0 43 0 4 50 3 50 -50 0 -50 0 3 -50z"/>
<path d="M2778 2180 l4 -50 48 0 c29 0 50 -5 54 -12 3 -7 4 14 3 47 l-2 60
-55 3 -55 3 3 -51z"/>
<path d="M2278 1513 l2 -568 -582 3 -583 2 3 -55 4 -55 634 -2 634 -3 -2 620
-3 620 -55 3 -55 3 3 -568z"/>
<path d="M2448 1428 l2 -653 -667 3 -668 2 3 -50 4 -50 708 0 708 0 7 133 c3
72 5 386 3 697 l-3 565 -50 3 -50 3 3 -653z"/>
<path d="M2608 1353 l2 -728 -747 3 -748 2 3 -55 4 -55 791 0 792 0 0 780 0
780 -50 0 -50 0 3 -727z"/>
<path d="M2778 1268 l2 -813 -832 3 -833 2 0 -60 0 -60 883 0 882 0 0 870 0
870 -52 0 -53 0 3 -812z"/>
<path d="M1114 1978 c3 -50 6 -291 6 -534 l0 -444 550 -2 550 -3 0 538 0 537
-556 0 -557 0 7 -92z"/>
<path d="M405 893 l0 -58 58 0 57 0 0 58 0 57 -57 0 -58 0 0 -57z"/>
<path d="M575 893 l0 -58 58 0 57 0 0 58 0 57 -57 0 -58 0 0 -57z"/>
<path d="M745 893 l0 -58 53 0 52 0 0 58 0 57 -52 0 -53 0 0 -57z"/>
<path d="M905 893 l0 -58 62 3 61 4 4 54 3 54 -65 0 -65 0 0 -57z"/>
<path d="M575 728 l0 -53 58 0 57 0 0 53 0 52 -57 0 -58 0 0 -52z"/>
<path d="M745 725 l0 -55 53 0 52 0 0 55 0 55 -52 0 -53 0 0 -55z"/>
<path d="M905 728 l0 -53 62 3 61 4 4 49 3 49 -65 0 -65 0 0 -52z"/>
<path d="M745 573 l0 -58 53 0 52 0 0 58 0 57 -52 0 -53 0 0 -57z"/>
<path d="M905 573 l0 -58 62 3 61 4 4 54 3 54 -65 0 -65 0 0 -57z"/>
<path d="M905 400 l0 -60 62 0 61 0 4 60 3 60 -65 0 -65 0 0 -60z"/>
<path d="M4874 1759 c-40 -11 -90 -67 -103 -116 -6 -21 -11 -96 -11 -168 0
-149 9 -192 51 -240 77 -87 242 -68 299 35 24 43 25 53 25 205 0 152 -1 162
-25 205 -42 76 -137 108 -236 79z"/>
<path d="M3740 1475 l0 -285 99 0 c106 0 153 11 189 44 49 44 56 71 56 231 0
168 -9 211 -55 249 -41 35 -89 46 -196 46 l-93 0 0 -285z"/>
<path d="M5860 1645 l0 -117 123 4 c98 3 127 7 149 22 37 25 54 82 39 129 -20
60 -49 71 -188 75 l-123 4 0 -117z"/>
<path d="M6870 1645 l0 -117 123 4 c98 3 127 7 149 22 37 25 54 82 39 129 -20
60 -49 71 -188 75 l-123 4 0 -117z"/>
<path d="M9720 1475 l0 -285 99 0 c106 0 153 11 189 44 49 44 56 71 56 231 0
168 -9 211 -55 249 -41 35 -89 46 -196 46 l-93 0 0 -285z"/>
<path d="M10870 1528 c-30 -89 -56 -165 -58 -170 -2 -4 48 -8 112 -8 64 0 116
4 116 9 0 11 -99 300 -108 317 -4 8 -30 -55 -62 -148z"/>
<path d="M12860 1528 c-30 -89 -56 -165 -58 -170 -2 -4 48 -8 112 -8 64 0 116
4 116 9 0 11 -99 300 -108 317 -4 8 -30 -55 -62 -148z"/>
</g>
</svg>
