<?xml version="1.0" standalone="no"?>
<!DOCTYPE svg PUBLIC "-//W3C//DTD SVG 20010904//EN"
 "http://www.w3.org/TR/2001/REC-SVG-20010904/DTD/svg10.dtd">
<svg version="1.0" xmlns="http://www.w3.org/2000/svg"
 width="1353.000000pt" height="306.000000pt" viewBox="0 0 1353.000000 306.000000"
 preserveAspectRatio="xMidYMid meet">

<g transform="translate(0.000000,306.000000) scale(0.100000,-0.100000)"
fill="#000000" stroke="none">
<path d="M177 2793 c-9 -177 -9 -1539 0 -1716 l6 -137 78 0 78 0 3 -82 3 -83
82 -3 82 -3 3 -72 3 -72 83 -3 82 -3 0 -84 0 -85 80 0 80 0 0 -80 0 -80 100 0
100 0 0 -90 0 -90 1044 0 c943 0 1044 2 1050 16 3 9 6 459 6 1000 l0 984 -100
0 -100 0 0 85 0 85 -85 0 -85 0 0 85 0 85 -85 0 -85 0 0 85 0 85 -80 0 -80 0
0 75 0 75 -85 0 -85 0 0 80 0 80 -1043 0 -1044 0 -6 -137z m2033 32 l0 -55
-935 0 -935 0 0 -891 0 -890 -51 3 -50 3 0 938 c0 515 1 939 1 942 0 3 443 5
985 5 l985 0 0 -55z m0 -160 l0 -45 -850 0 -850 0 0 -816 0 -815 -52 3 -53 3
-2 845 c-2 465 -1 851 2 858 3 9 194 12 905 12 l900 0 0 -45z m170 0 l0 -45
-55 0 -55 0 0 45 0 45 55 0 55 0 0 -45z m-170 -160 l0 -55 -765 0 -765 0 0
-731 0 -730 -52 3 -53 3 -3 783 -2 782 820 0 820 0 0 -55z m170 0 l0 -55 -55
0 -55 0 0 55 0 55 55 0 55 0 0 -55z m160 0 l0 -55 -50 0 -50 0 0 55 0 55 50 0
50 0 0 -55z m-330 -165 l0 -50 -542 0 c-299 0 -607 -3 -685 -7 l-143 -6 0
-644 0 -644 -47 3 -48 3 -3 698 -2 697 735 0 735 0 0 -50z m170 0 l0 -50 -55
0 -55 0 0 50 0 50 55 0 55 0 0 -50z m160 0 l0 -50 -50 0 -50 0 0 50 0 50 50 0
50 0 0 -50z m170 0 l0 -50 -55 0 -55 0 0 50 0 50 55 0 55 0 0 -50z m-500 -175
l0 -55 -585 0 -585 0 0 -560 0 -561 -67 3 -68 3 -2 613 -3 612 655 0 655 0 0
-55z m170 0 l0 -55 -55 0 -55 0 0 55 0 55 55 0 55 0 0 -55z m160 0 l0 -55 -50
0 -50 0 0 55 0 55 50 0 50 0 0 -55z m170 0 l0 -55 -55 0 -55 0 0 55 0 55 55 0
55 0 0 -55z m170 0 l0 -55 -55 0 -55 0 0 55 0 55 55 0 55 0 0 -55z m-670 -635
l0 -540 -550 0 -550 0 0 540 0 540 550 0 550 0 0 -540z m170 -80 l0 -620 -635
0 -635 0 0 55 0 55 580 0 580 0 0 565 0 565 55 0 55 0 0 -620z m160 -80 l0
-700 -715 0 -715 0 0 50 0 50 665 0 665 0 0 650 0 650 50 0 50 0 0 -700z m170
-80 l0 -780 -800 0 -800 0 0 55 0 55 745 0 745 0 0 725 0 725 55 0 55 0 0
-780z m170 -80 l0 -860 -885 0 -885 0 0 50 0 50 830 0 830 0 0 810 0 810 55 0
55 0 0 -860z m200 -74 c0 -514 -3 -941 -6 -950 -6 -14 -96 -16 -920 -16 -724
0 -914 3 -915 13 0 9 -2 9 -6 0 -3 -9 -26 -13 -64 -13 l-59 0 0 60 0 60 915 0
915 0 0 890 0 890 70 0 70 0 0 -934z m-2570 -252 l0 -55 -52 3 -53 3 -3 53 -3
52 55 0 56 0 0 -56z m170 0 l0 -55 -52 3 -53 3 -3 53 -3 52 55 0 56 0 0 -56z
m160 0 l0 -55 -47 3 -48 3 -3 53 -3 52 50 0 51 0 0 -56z m200 1 l0 -56 -67 3
-68 3 -3 53 -3 52 70 0 71 0 0 -55z m-360 -166 l0 -50 -52 3 -53 3 -3 48 -3
47 55 0 56 0 0 -51z m160 0 l0 -50 -47 3 -48 3 -3 48 -3 47 50 0 51 0 0 -51z
m200 1 l0 -51 -67 3 -68 3 -3 48 -3 47 70 0 71 0 0 -50z m-200 -156 l0 -55
-47 3 -48 3 -3 53 -3 52 50 0 51 0 0 -56z m200 1 l0 -56 -67 3 -68 3 -3 53 -3
52 70 0 71 0 0 -55z m0 -165 l0 -50 -70 0 -70 0 0 50 0 50 70 0 70 0 0 -50z"/>
<path d="M4855 2080 c-22 -5 -67 -18 -100 -31 -82 -31 -182 -129 -216 -214
-23 -57 -24 -72 -24 -270 0 -198 1 -213 24 -270 34 -84 134 -184 216 -214 254
-95 525 -16 627 183 31 61 48 161 48 291 0 207 -26 302 -109 397 -94 106 -296
162 -466 128z m201 -239 c80 -36 104 -100 104 -276 0 -125 -11 -185 -42 -228
-55 -77 -204 -90 -277 -24 -50 46 -61 90 -61 250 0 157 9 197 53 246 48 52
147 66 223 32z"/>
<path d="M3490 2061 c-6 -13 -10 -187 -10 -496 0 -309 4 -483 10 -496 10 -18
24 -19 253 -19 326 0 402 20 514 129 88 87 123 198 123 391 0 235 -70 374
-228 454 -93 47 -156 56 -414 56 -224 0 -238 -1 -248 -19z m520 -233 c86 -44
106 -108 98 -311 -5 -131 -21 -175 -77 -209 -31 -20 -52 -23 -158 -27 l-123
-3 0 286 0 286 108 0 c92 0 114 -3 152 -22z"/>
<path d="M5610 2061 c-6 -13 -10 -187 -10 -496 0 -309 4 -483 10 -496 10 -17
22 -19 120 -19 59 0 115 3 124 6 14 5 16 30 16 170 l0 164 133 0 c245 0 368
53 434 188 25 51 28 68 28 157 0 89 -3 106 -28 157 -45 91 -119 144 -239 173
-47 11 -128 15 -320 15 -244 0 -258 -1 -268 -19z m525 -225 c37 -16 65 -59 65
-101 0 -42 -28 -85 -65 -101 -23 -9 -73 -14 -150 -14 l-115 0 0 115 0 115 115
0 c77 0 127 -5 150 -14z"/>
<path d="M6620 2061 c-6 -13 -10 -187 -10 -496 0 -309 4 -483 10 -496 10 -17
22 -19 120 -19 59 0 115 3 124 6 14 5 16 30 16 170 l0 164 133 0 c245 0 368
53 434 188 25 51 28 68 28 157 0 89 -3 106 -28 157 -45 91 -119 144 -239 173
-47 11 -128 15 -320 15 -244 0 -258 -1 -268 -19z m525 -225 c37 -16 65 -59 65
-101 0 -42 -28 -85 -65 -101 -23 -9 -73 -14 -150 -14 l-115 0 0 115 0 115 115
0 c77 0 127 -5 150 -14z"/>
<path d="M7630 2061 c-6 -13 -10 -187 -10 -496 0 -309 4 -483 10 -496 10 -18
25 -19 368 -19 265 0 361 3 370 12 8 8 12 46 12 103 0 57 -4 95 -12 103 -9 9
-77 12 -245 12 l-233 0 0 394 c0 350 -2 395 -16 400 -9 3 -65 6 -124 6 -98 0
-110 -2 -120 -19z"/>
<path d="M8520 2061 c-6 -13 -10 -187 -10 -496 0 -309 4 -483 10 -496 10 -18
25 -19 378 -19 273 0 371 3 380 12 8 8 12 46 12 103 0 57 -4 95 -12 103 -9 9
-79 12 -255 12 l-243 0 0 85 0 85 214 0 c118 0 221 3 230 6 13 5 16 24 16 109
0 85 -3 104 -16 109 -9 3 -112 6 -230 6 l-214 0 0 85 0 85 240 0 c279 0 260
-8 260 115 0 126 37 115 -385 115 -350 0 -365 -1 -375 -19z"/>
<path d="M9470 2061 c-6 -13 -10 -187 -10 -496 0 -309 4 -483 10 -496 10 -18
24 -19 253 -19 326 0 402 20 514 129 88 87 123 198 123 391 0 235 -70 374
-228 454 -93 47 -156 56 -414 56 -224 0 -238 -1 -248 -19z m520 -233 c86 -44
106 -108 98 -311 -5 -131 -21 -175 -77 -209 -31 -20 -52 -23 -158 -27 l-123
-3 0 286 0 286 108 0 c92 0 114 -3 152 -22z"/>
<path d="M10783 2058 c-23 -27 -346 -958 -341 -985 3 -16 16 -18 120 -21 136
-3 136 -3 168 93 l22 65 197 0 197 0 18 -57 c32 -105 30 -103 160 -103 87 0
116 3 126 14 9 12 -21 110 -155 498 -112 323 -173 489 -187 501 -17 14 -41 17
-162 17 -135 0 -144 -1 -163 -22z m228 -453 l57 -165 -120 0 c-92 0 -119 3
-116 13 3 6 29 83 58 169 30 86 56 155 59 152 3 -3 31 -79 62 -169z"/>
<path d="M11522 2068 c-16 -16 -16 -190 0 -206 8 -8 56 -12 150 -12 l138 0 0
-388 c0 -288 3 -391 12 -400 17 -17 229 -17 246 0 9 9 12 112 12 400 l0 388
140 0 c164 0 160 -3 160 115 0 127 44 115 -433 115 -308 0 -416 -3 -425 -12z"/>
<path d="M12773 2058 c-23 -27 -346 -958 -341 -985 3 -16 16 -18 120 -21 136
-3 136 -3 168 93 l22 65 197 0 197 0 18 -57 c32 -105 30 -103 160 -103 87 0
116 3 126 14 9 12 -21 110 -155 498 -112 323 -173 489 -187 501 -17 14 -41 17
-162 17 -135 0 -144 -1 -163 -22z m228 -453 l57 -165 -120 0 c-92 0 -119 3
-116 13 3 6 29 83 58 169 30 86 56 155 59 152 3 -3 31 -79 62 -169z"/>
</g>
</svg>
